<?xml version="1.0" encoding="utf-8"?>
<!-- Generator: Adobe Illustrator 25.0.0, SVG Export Plug-In . SVG Version: 6.00 Build 0)  -->
<svg version="1.1" id="Layer_1" xmlns="http://www.w3.org/2000/svg" xmlns:xlink="http://www.w3.org/1999/xlink" x="0px" y="0px"
	 viewBox="0 0 300 400" style="enable-background:new 0 0 300 400;" xml:space="preserve">
<path id="wing" d="M203.49,211.55c-61.77,15.94-118.1-3.5-174.01-22.68c-7.65,23.54,12.38,70.68,39.07,86.5
	c22.74,13.47,48.59,11.12,73.38,12.44c23.15,1.24,46.39,0.27,68.12,0.27c-13.37,10.81-84.52,15.8-131.81,8.17
	c-1.72,22.71,43.08,48.82,67.16,49.21c56.72,6.86,77.49,20.01,123.74,44.64c7.43,3.96,15.44,6.74,23.36,9.48
	c3.75,1.3,7.4-0.39,7.45-5.38c0.61-58.54-3.41-116.15-28.15-169.74c-17.31-37.49-46.57-57.67-81.35-73.02
	C134.39,126.71,81.66,95.18,40.55,44.94C30.33,32.46,22.31,18.36,18.02,2.04C17.82,1.28,17.1,0.68,16.63,0
	c-1.18,1.39-2.75,2.58-3.47,4.21C2.42,28.67-0.72,54.79,0.13,81.48c1.06,33.07,7.19,65.17,32.15,86.73
	c13.97,12.07,33.38,18.42,50.61,23.91c37.3,11.87,75.52,20.12,114.29,19.43C198.17,211.54,199.15,211.55,203.49,211.55z"/>
</svg>
